<?xml version="1.0" encoding="UTF-8"?>
<svg version="1.1" xmlns="http://www.w3.org/2000/svg" width="729" height="250">
<path d="M0 0 C240.57 0 481.14 0 729 0 C729 82.5 729 165 729 250 C488.43 250 247.86 250 0 250 C0 167.5 0 85 0 0 Z " fill="#FEFDFD" transform="translate(0,0)"/>
<path d="M0 0 C1.80656775 -0.00486505 3.61313009 -0.01231261 5.41967773 -0.02212524 C10.293809 -0.04082405 15.16712861 -0.02219541 20.04119611 0.00453901 C25.15962049 0.02729594 30.27800862 0.01894326 35.39646912 0.01504517 C43.98824199 0.01328338 52.57969801 0.03535486 61.17138672 0.07226562 C71.08379841 0.11460835 80.99574653 0.12161539 90.90823036 0.10914171 C100.47214051 0.09772599 110.03588855 0.10907821 119.59977531 0.1314888 C123.65732784 0.14074188 127.71478061 0.14254547 131.77234077 0.13831711 C136.55538613 0.13453108 141.3379642 0.15091271 146.12090302 0.1824379 C147.86912286 0.19087354 149.61739034 0.19265863 151.36562157 0.1870575 C163.05340847 0.15530998 174.37389476 0.53287367 183.33374023 9.04150391 C189.46943015 16.02625796 192.14271009 23.2070722 192.08380127 32.51156616 C192.08848124 33.65622563 192.08848124 33.65622563 192.09325576 34.82400954 C192.10120797 37.37103377 192.09492295 39.91781791 192.08862305 42.46484375 C192.09133419 44.29509114 192.09489581 46.12533743 192.09924316 47.95558167 C192.10835606 52.92050845 192.10482708 57.88535206 192.09848499 62.85028028 C192.0934178 68.05022371 192.09811859 73.25016006 192.10125732 78.45010376 C192.10489551 87.1843595 192.10010239 95.91858142 192.09057617 104.65283203 C192.07969873 114.74230297 192.08321264 124.83169304 192.09422898 134.92116201 C192.10331417 143.58970848 192.1045809 152.25823065 192.09935164 160.92678034 C192.09623785 166.10138119 192.09580626 171.27594406 192.10242462 176.45054245 C192.1082151 181.31788593 192.10417002 186.18512551 192.09263611 191.05245781 C192.08999834 192.83581431 192.09073949 194.61917961 192.09516144 196.40253258 C192.10065346 198.84304669 192.09373866 201.28323107 192.08380127 203.72372437 C192.09049343 204.77404219 192.09049343 204.77404219 192.0973208 205.84557855 C192.02693744 214.80120626 189.59592972 221.88627715 183.82983398 228.74462891 C181.32418837 231.04063883 178.73411501 232.98284078 175.82983398 234.74462891 C175.05429169 235.25919144 174.27874939 235.77375397 173.47970581 236.3039093 C168.10182939 238.42672686 163.0375977 238.13738019 157.30688477 238.08520508 C156.047798 238.08564316 154.78871124 238.08608124 153.49147034 238.08653259 C150.051723 238.08739089 146.61229157 238.06979229 143.17261744 238.04881072 C139.57317374 238.03001615 135.97372225 238.0282913 132.37423706 238.0247345 C125.56387677 238.01542216 118.7536615 237.99081948 111.94336498 237.96068603 C104.18765025 237.92711665 96.43192848 237.91064965 88.67615914 237.89559972 C72.7273002 237.86426912 56.77858582 237.81152455 40.82983398 237.74462891 C41.6821577 233.35778739 43.63575525 231.80896683 47.01733398 228.86962891 C52.47975779 224.03966124 57.65873573 218.99294723 62.75634766 213.78027344 C65.63322635 210.86044356 68.56087607 208.07383839 71.66967773 205.40087891 C76.38937785 201.32431024 80.75810441 196.92607885 85.14233398 192.49462891 C85.93961914 191.69283203 86.7369043 190.89103516 87.55834961 190.06494141 C89.02802631 188.58661228 90.49666538 187.10725026 91.96386719 185.62646484 C93.58165511 183.99491842 95.20373049 182.36788126 96.82983398 180.74462891 C76.78522948 191.01081679 76.78522948 191.01081679 56.95483398 201.68212891 C47.50526013 206.89728268 37.93071768 211.84692105 28.32778931 216.77127075 C17.0539862 222.55564008 5.89123695 228.52030652 -5.18847656 234.66992188 C-5.84243408 235.0245752 -6.4963916 235.37922852 -7.17016602 235.74462891 C-8.18880737 236.29787842 -8.18880737 236.29787842 -9.22802734 236.86230469 C-12.94287607 238.54998078 -16.48326507 238.25130599 -20.34204102 237.09228516 C-29.01300864 233.60894816 -34.88834458 228.16540542 -39.26000977 219.95556641 C-41.25938346 215.09871873 -41.31868335 210.25906645 -41.31733704 205.07344055 C-41.32101372 204.30851624 -41.32469041 203.54359193 -41.32847852 202.7554881 C-41.33947798 200.19627882 -41.34335282 197.6371102 -41.34716797 195.07788086 C-41.35343542 193.24117403 -41.36008247 191.40446847 -41.36708069 189.56776428 C-41.38808925 183.5394885 -41.39847982 177.51121256 -41.40844727 171.48291016 C-41.41249596 169.40507685 -41.41661292 167.32724367 -41.42079735 165.24941063 C-41.43984166 155.48692422 -41.45407452 145.72444533 -41.46240932 135.96194392 C-41.47218042 124.70397442 -41.49849992 113.4462016 -41.53891021 102.18830138 C-41.56909649 93.47898517 -41.58388057 84.76972526 -41.58719033 76.06035775 C-41.58953784 70.86212853 -41.59845962 65.66410962 -41.6236515 60.46593666 C-41.6469813 55.57309224 -41.65114571 50.68059588 -41.64089012 45.78771019 C-41.64039585 43.99711828 -41.646684 42.20650894 -41.66044617 40.41596985 C-41.74847012 28.27947702 -41.15177364 17.75108641 -32.3023138 8.55324364 C-22.38878473 0.14399789 -12.29541239 -0.11676197 0 0 Z " fill="#533C26" transform="translate(46.170166015625,4.25537109375)"/>
<path d="M0 0 C0.73659843 -0.00367669 1.47319686 -0.00735338 2.23211646 -0.01114148 C4.71324329 -0.02220045 7.19432826 -0.0260259 9.67547607 -0.02983093 C11.44926589 -0.03609393 13.22305438 -0.04274058 14.99684143 -0.04974365 C19.82547969 -0.06716894 24.65410804 -0.07770964 29.48276997 -0.08594918 C32.49833919 -0.09109625 35.51390531 -0.09717212 38.52947235 -0.10346031 C47.96092039 -0.12251692 57.39236057 -0.13674688 66.82382417 -0.14507228 C77.71737346 -0.15484652 88.61071965 -0.18116896 99.50419736 -0.22157317 C107.91955021 -0.25171668 116.33484478 -0.26653949 124.75025058 -0.26985329 C129.77848992 -0.27220586 134.8065124 -0.28119302 139.83469391 -0.30631447 C144.5657969 -0.32956923 149.29653987 -0.33383889 154.02768517 -0.32355309 C155.76351556 -0.32305698 157.49936352 -0.32939952 159.23513985 -0.34310913 C161.60681764 -0.36079202 163.97719836 -0.35374062 166.34887695 -0.34057617 C167.03429731 -0.35154542 167.71971766 -0.36251466 168.42590833 -0.37381631 C174.4800283 -0.29279768 177.80601084 2.35622952 182.27502441 6.12731934 C184.95839721 11.02841967 184.44951615 15.97162257 184.38250732 21.46479797 C184.38309143 22.71398514 184.38367554 23.9631723 184.38427734 25.25021362 C184.38197092 28.66754491 184.36193633 32.0839051 184.33398151 35.50106454 C184.30894615 39.07514337 184.30662419 42.64923568 184.30187988 46.22338867 C184.28945631 52.9877963 184.25664331 59.75194478 184.21648192 66.51623839 C184.17174477 74.21871044 184.14977232 81.92119497 184.12970018 89.62376463 C184.08790994 105.46505008 184.0175702 121.30607711 183.92840576 137.14717102 C181.4389225 134.68861512 179.18287029 132.30225574 177.15106201 129.45185852 C176.64454102 128.74553284 176.13802002 128.03920715 175.6161499 127.31147766 C175.07981934 126.55600647 174.54348877 125.80053528 173.99090576 125.02217102 C172.82430235 123.39321947 171.65763389 121.7643145 170.49090576 120.13545227 C169.89793701 119.30481262 169.30496826 118.47417297 168.69403076 117.61836243 C165.97104651 113.80723873 163.23241425 110.00748268 160.49090576 106.20967102 C159.96520996 105.48102844 159.43951416 104.75238586 158.89788818 104.00166321 C151.66126118 93.98794913 144.34975911 84.02490715 136.92840576 74.14717102 C133.05702839 74.69402477 131.41635813 76.39304746 128.80340576 79.20967102 C127.54827907 80.55715609 126.26333548 81.87869884 124.92840576 83.14717102 C124.26840576 83.14717102 123.60840576 83.14717102 122.92840576 83.14717102 C122.44114014 82.25900696 121.95387451 81.3708429 121.45184326 80.45576477 C115.74736541 70.1461023 109.67886826 60.0810251 103.52606201 50.03388977 C100.00197186 44.27892725 96.52079261 38.49893601 93.05340576 32.70967102 C92.53544434 31.84503235 92.01748291 30.98039368 91.48382568 30.08955383 C90.29805683 28.10913467 89.11285582 26.12837912 87.92840576 24.14717102 C86.03469985 24.22759337 86.03469985 24.22759337 83.92840576 25.14717102 C82.03090978 27.58435828 82.03090978 27.58435828 80.34637451 30.70967102 C80.01508041 31.28467346 79.68378632 31.8596759 79.342453 32.45210266 C78.25534483 34.34408247 77.1859524 36.24549882 76.11590576 38.14717102 C75.36593045 39.45792025 74.61444947 40.76780905 73.86151123 42.07685852 C72.7034142 44.09036183 71.54611187 46.1042629 70.39331055 48.12080383 C66.54154869 54.8541644 62.56023789 61.50503612 58.55340576 68.14717102 C57.92974121 69.18357727 57.30607666 70.21998352 56.66351318 71.28779602 C55.56846568 73.10725021 54.47279293 74.92632842 53.37615967 76.74482727 C51.89033701 79.21034075 50.40871262 81.67834263 48.92840576 84.14717102 C45.48412311 82.69935309 43.56709614 80.87022493 41.17840576 78.02217102 C40.56481201 77.2977179 39.95121826 76.57326477 39.31903076 75.82685852 C38.86012451 75.27256165 38.40121826 74.71826477 37.92840576 74.14717102 C35.10218756 74.48319036 34.08135825 74.97756365 32.14593506 77.12373352 C31.54176758 77.9977179 30.9376001 78.87170227 30.31512451 79.77217102 C29.6182251 80.77119446 28.92132568 81.7702179 28.20330811 82.79951477 C27.44408363 83.91477193 26.68581367 85.03067937 25.92840576 86.14717102 C25.12738841 87.31531274 24.3261128 88.48327739 23.52459717 89.65107727 C21.36727362 92.80561774 19.22701793 95.97139088 17.09210205 99.14112854 C15.24488751 101.88358045 13.39328024 104.62305575 11.5418396 107.36265564 C10.61974862 108.72708644 9.69785109 110.09164799 8.77615356 111.4563446 C3.64690445 119.04930678 -1.52145836 126.61518789 -6.71221924 134.16621399 C-8.08634047 136.16866005 -9.45435538 138.1751774 -10.82159424 140.18232727 C-11.65477345 141.39988067 -12.48809705 142.61733528 -13.32159424 143.83467102 C-14.02800049 144.86978821 -14.73440674 145.9049054 -15.46221924 146.97138977 C-15.99331299 147.68939758 -16.52440674 148.4074054 -17.07159424 149.14717102 C-17.40159424 149.14717102 -17.73159424 149.14717102 -18.07159424 149.14717102 C-18.1650651 131.25787234 -18.23558688 113.36863711 -18.27884293 95.47914696 C-18.29946195 87.17260446 -18.32756983 78.86621375 -18.37335205 70.55976868 C-18.41324015 63.31926135 -18.43903185 56.07886396 -18.44794822 48.8382498 C-18.45315967 45.00489098 -18.46539437 41.17184667 -18.49451447 37.33858871 C-18.521715 33.72868106 -18.53003005 30.11921671 -18.52402496 26.50921631 C-18.52564579 24.55653727 -18.54714437 22.60390623 -18.5692749 20.65135193 C-18.51899363 9.9580164 -18.51899363 9.9580164 -14.07159424 5.14717102 C-9.19440121 0.85059621 -6.35508745 -0.00168741 0 0 Z " fill="#FDFDFD" transform="translate(38.07159423828125,19.852828979492188)"/>
<path d="M0 0 C5.84781454 4.74322735 9.12262421 10.20039255 10.734375 17.5234375 C11.74215598 28.49421774 12.10776552 40.08192642 5.734375 49.5234375 C0.02180052 56.18086745 -5.83497613 59.95110564 -14.52734375 60.8671875 C-23.73253154 61.26524967 -30.18792858 59.75974299 -37.29296875 53.83203125 C-44.06674604 46.97232867 -46.45266912 38.30006885 -46.640625 28.8359375 C-46.26959439 19.09638396 -44.47366471 11.30330003 -38.265625 3.5234375 C-27.72425847 -5.77213117 -12.05662998 -7.85759678 0 0 Z " fill="#543E28" transform="translate(428.265625,51.4765625)"/>
<path d="M0 0 C1.30646484 -0.00257813 2.61292969 -0.00515625 3.95898438 -0.0078125 C4.64323486 -0.00362305 5.32748535 0.00056641 6.0324707 0.00488281 C8.08901367 0.01546001 10.14465839 0.00505463 12.20117188 -0.0078125 C23.56966175 0.01446773 32.74153151 0.52715484 41.55859375 8.265625 C48.10697872 15.97710511 49.09519427 24.85157245 48.9375 34.66015625 C48.04005756 43.1997374 44.20323565 51.66620767 37.55859375 57.265625 C28.73710947 63.24549842 20.87555321 63.45214931 10.47387695 63.45092773 C8.36714917 63.45312912 6.26093322 63.47135727 4.15429688 63.49023438 C2.81640804 63.49316595 1.47851672 63.49515232 0.140625 63.49609375 C-1.07391357 63.50020264 -2.28845215 63.50431152 -3.53979492 63.50854492 C-6.44140625 63.265625 -6.44140625 63.265625 -8.44140625 61.265625 C-8.7421875 59.390625 -8.7421875 59.390625 -8.75390625 57.265625 C-8.77066406 56.564375 -8.78742188 55.863125 -8.8046875 55.140625 C-8.68480469 54.521875 -8.56492187 53.903125 -8.44140625 53.265625 C-5.44140625 51.265625 -5.44140625 51.265625 -2.44140625 51.265625 C-2.44140625 38.395625 -2.44140625 25.525625 -2.44140625 12.265625 C-4.09140625 11.935625 -5.74140625 11.605625 -7.44140625 11.265625 C-9.33629577 9.37073548 -8.62159737 6.69423354 -8.671875 4.17578125 C-8.07306251 -0.78725784 -3.99280322 0.00757494 0 0 Z " fill="#543D28" transform="translate(387.44140625,128.734375)"/>
<path d="M0 0 C2.04567815 -0.00959962 4.09030454 -0.04056877 6.13574219 -0.07226562 C14.92870477 -0.10681558 23.30928952 -0.03175597 30.51855469 5.49023438 C34.49854042 10.79688201 36.39804997 15.58755847 35.58105469 22.24023438 C33.74445076 27.49331658 31.37676732 31.21136324 26.58105469 34.24023438 C25.92105469 34.24023438 25.26105469 34.24023438 24.58105469 34.24023438 C24.979375 34.8203125 25.37769531 35.40039062 25.78808594 35.99804688 C33.58105469 47.48840956 33.58105469 47.48840956 33.58105469 51.24023438 C35.25167969 51.17835937 35.25167969 51.17835937 36.95605469 51.11523438 C40.58105469 51.24023438 40.58105469 51.24023438 42.58105469 53.24023438 C42.77636719 55.40429687 42.77636719 55.40429687 42.70605469 57.86523438 C42.68800781 58.6825 42.66996094 59.49976563 42.65136719 60.34179688 C42.62816406 60.96828125 42.60496094 61.59476563 42.58105469 62.24023438 C37.55798625 64.75176859 31.00045667 64.10664092 25.58105469 63.24023438 C22.37521796 60.84790885 21.15620116 57.85467705 19.58105469 54.24023438 C18.45882653 51.91618742 17.31202491 49.60387923 16.14355469 47.30273438 C15.62921875 46.20058594 15.11488281 45.0984375 14.58496094 43.96289062 C11.98740214 40.43365381 9.79762988 40.03932312 5.58105469 39.24023438 C5.58105469 43.20023438 5.58105469 47.16023438 5.58105469 51.24023438 C6.90105469 51.57023437 8.22105469 51.90023437 9.58105469 52.24023438 C10.58105469 53.24023438 10.58105469 53.24023438 10.67871094 55.30664062 C10.66710937 56.13035156 10.65550781 56.9540625 10.64355469 57.80273438 C10.63453125 58.62902344 10.62550781 59.4553125 10.61621094 60.30664062 C10.60460937 60.94472656 10.59300781 61.5828125 10.58105469 62.24023438 C6.81066412 64.12542966 2.22950874 63.42499431 -1.91894531 63.42773438 C-2.89476562 63.43998047 -3.87058594 63.45222656 -4.87597656 63.46484375 C-5.80796875 63.46677734 -6.73996094 63.46871094 -7.70019531 63.47070312 C-8.55677734 63.47481201 -9.41335938 63.4789209 -10.29589844 63.4831543 C-12.41894531 63.24023438 -12.41894531 63.24023438 -14.41894531 61.24023438 C-14.68457031 59.36523438 -14.68457031 59.36523438 -14.66894531 57.24023438 C-14.67410156 56.53898437 -14.67925781 55.83773437 -14.68457031 55.11523438 C-14.41894531 53.24023438 -14.41894531 53.24023438 -12.41894531 51.24023438 C-11.42894531 51.24023438 -10.43894531 51.24023438 -9.41894531 51.24023438 C-9.41894531 38.37023437 -9.41894531 25.50023437 -9.41894531 12.24023438 C-10.73894531 11.91023438 -12.05894531 11.58023438 -13.41894531 11.24023438 C-14.41894531 10.24023438 -14.41894531 10.24023438 -14.51660156 8.17382812 C-14.505 7.35011719 -14.49339844 6.52640625 -14.48144531 5.67773438 C-14.47242188 4.85144531 -14.46339844 4.02515625 -14.45410156 3.17382812 C-14.4425 2.53574219 -14.43089844 1.89765625 -14.41894531 1.24023438 C-10.18603613 -0.87622022 -4.65542341 0.0131944 0 0 Z " fill="#553E29" transform="translate(335.4189453125,47.759765625)"/>
<path d="M0 0 C0.75531006 0.00016113 1.51062012 0.00032227 2.28881836 0.00048828 C4.56312247 -0.00384419 6.83541986 -0.04003198 9.109375 -0.078125 C25.70241075 -0.20862406 25.70241075 -0.20862406 32.13500977 5.88964844 C36.5834194 11.00062022 36.92833188 14.64666928 36.88867188 21.24609375 C36.3701997 25.80409087 34.59947513 29.00251324 31.53320312 32.37109375 C28.53320312 34.37109375 28.53320312 34.37109375 25.53320312 34.37109375 C25.53320312 35.03109375 25.53320312 35.69109375 25.53320312 36.37109375 C26.52320313 36.70109375 27.51320313 37.03109375 28.53320312 37.37109375 C29.66671132 39.48027988 30.71803432 41.63415998 31.72070312 43.80859375 C33.91771916 48.40588379 33.91771916 48.40588379 37.73242188 51.640625 C40.12907144 52.22612941 40.12907144 52.22612941 43.53320312 52.37109375 C45.42809265 54.26598327 44.71339424 56.94248521 44.76367188 59.4609375 C44.53320312 61.37109375 44.53320312 61.37109375 42.53320312 63.37109375 C39.7883472 63.5161707 37.1483977 63.55761798 34.40820312 63.49609375 C33.65410156 63.48707031 32.9 63.47804687 32.12304688 63.46875 C30.25963058 63.44516245 28.3963772 63.40929094 26.53320312 63.37109375 C26.2512207 62.85200439 25.96923828 62.33291504 25.67871094 61.7980957 C24.38523791 59.42381525 23.08429767 57.05370559 21.78320312 54.68359375 C21.33976563 53.86697266 20.89632812 53.05035156 20.43945312 52.20898438 C16.99773953 45.93603511 16.99773953 45.93603511 12.53320312 40.37109375 C9.39456608 39.48515377 9.39456608 39.48515377 6.53320312 39.37109375 C6.53320312 43.33109375 6.53320312 47.29109375 6.53320312 51.37109375 C8.18320312 51.70109375 9.83320312 52.03109375 11.53320312 52.37109375 C13.42809265 54.26598327 12.71339424 56.94248521 12.76367188 59.4609375 C12.53320312 61.37109375 12.53320312 61.37109375 10.53320312 63.37109375 C8.31835938 63.62988281 8.31835938 63.62988281 5.59570312 63.63671875 C4.61859375 63.63929687 3.64148438 63.641875 2.63476562 63.64453125 C1.61125 63.63679688 0.58773437 63.6290625 -0.46679688 63.62109375 C-1.4903125 63.62882812 -2.51382813 63.6365625 -3.56835938 63.64453125 C-4.54546875 63.64195313 -5.52257812 63.639375 -6.52929688 63.63671875 C-7.42777344 63.63446289 -8.32625 63.63220703 -9.25195312 63.62988281 C-11.46679688 63.37109375 -11.46679688 63.37109375 -13.46679688 61.37109375 C-13.76757812 59.49609375 -13.76757812 59.49609375 -13.77929688 57.37109375 C-13.79605469 56.66984375 -13.8128125 55.96859375 -13.83007812 55.24609375 C-13.71019531 54.62734375 -13.5903125 54.00859375 -13.46679688 53.37109375 C-10.46679688 51.37109375 -10.46679688 51.37109375 -7.46679688 51.37109375 C-7.46679688 38.50109375 -7.46679688 25.63109375 -7.46679688 12.37109375 C-9.11679687 12.04109375 -10.76679687 11.71109375 -12.46679688 11.37109375 C-14.3616864 9.47620423 -13.64698799 6.79970229 -13.69726562 4.28125 C-12.94735959 -1.93407288 -4.68716746 0.03159678 0 0 Z " fill="#543D28" transform="translate(682.466796875,47.62890625)"/>
<path d="M0 0 C0.70970947 -0.00807175 1.41941895 -0.01614349 2.15063477 -0.02445984 C3.6604568 -0.03832441 5.17031049 -0.0490359 6.68017578 -0.05688477 C8.96319797 -0.07394376 11.24471254 -0.11778403 13.52734375 -0.16210938 C30.17085609 -0.34130782 30.17085609 -0.34130782 36.6015625 5.75708008 C41.24903855 11.09502438 41.40108099 15.05760777 41.34765625 21.95703125 C40.82829555 26.85886257 39.46707269 28.77120856 36 32.23828125 C33.32421875 33.4140625 33.32421875 33.4140625 31 34.23828125 C31.56589844 35.1303125 32.13179687 36.02234375 32.71484375 36.94140625 C33.45601107 38.12352121 34.19688091 39.30582273 34.9375 40.48828125 C35.31068359 41.07480469 35.68386719 41.66132813 36.06835938 42.265625 C37.8965661 45.1973439 39.46275382 47.79308354 40 51.23828125 C40.928125 51.19703125 41.85625 51.15578125 42.8125 51.11328125 C46 51.23828125 46 51.23828125 49 53.23828125 C49.36328125 55.11328125 49.36328125 55.11328125 49.3125 57.23828125 C49.30863281 57.93953125 49.30476562 58.64078125 49.30078125 59.36328125 C49 61.23828125 49 61.23828125 47 63.23828125 C44.47207337 63.46383206 42.08944424 63.56266716 39.5625 63.55078125 C38.5405957 63.57495117 38.5405957 63.57495117 37.49804688 63.59960938 C32.45383175 63.60454984 32.45383175 63.60454984 30.41577148 61.9597168 C28.9310058 60.15439125 27.89717398 58.41705687 26.84375 56.33203125 C26.46089844 55.58824219 26.07804688 54.84445313 25.68359375 54.078125 C24.5 51.73828125 24.5 51.73828125 23.31640625 49.3984375 C22.93355469 48.65464844 22.55070313 47.91085938 22.15625 47.14453125 C21.81400391 46.46712891 21.47175781 45.78972656 21.11914062 45.09179688 C19.92383269 43.1121333 18.77922609 41.71541652 17 40.23828125 C13.89160979 39.51135865 13.89160979 39.51135865 11 39.23828125 C11 43.19828125 11 47.15828125 11 51.23828125 C12.65 51.56828125 14.3 51.89828125 16 52.23828125 C17.89488952 54.13317077 17.18019112 56.80967271 17.23046875 59.328125 C17 61.23828125 17 61.23828125 15 63.23828125 C12.76928711 63.48120117 12.76928711 63.48120117 10.02734375 63.46875 C8.55491211 63.46584961 8.55491211 63.46584961 7.05273438 63.46289062 C6.02470703 63.45064453 4.99667969 63.43839844 3.9375 63.42578125 C2.90560547 63.42513672 1.87371094 63.42449219 0.81054688 63.42382812 C-6.85984003 63.37844122 -6.85984003 63.37844122 -8 62.23828125 C-8.16796875 60.2421875 -8.16796875 60.2421875 -8.1875 57.80078125 C-8.20167969 56.99769531 -8.21585938 56.19460937 -8.23046875 55.3671875 C-8 53.23828125 -8 53.23828125 -6 51.23828125 C-5.01 51.23828125 -4.02 51.23828125 -3 51.23828125 C-3 38.36828125 -3 25.49828125 -3 12.23828125 C-4.32 11.90828125 -5.64 11.57828125 -7 11.23828125 C-8 10.23828125 -8 10.23828125 -8.1328125 8.20703125 C-8.13023437 7.39234375 -8.12765625 6.57765625 -8.125 5.73828125 C-8.12757813 4.92359375 -8.13015625 4.10890625 -8.1328125 3.26953125 C-7.83613707 -1.26785769 -3.58718072 0.0384903 0 0 Z " fill="#543D27" transform="translate(574,128.76171875)"/>
<path d="M0 0 C1.1147168 -0.11214844 1.1147168 -0.11214844 2.25195312 -0.2265625 C4.75895653 -0.30566164 6.46396844 -0.1535319 8.8125 0.75 C11.76927243 3.71448341 13.73528915 7.13506645 15.8125 10.75 C16.38331299 11.68602051 16.95412598 12.62204102 17.54223633 13.58642578 C19.27031367 16.43488344 20.95297182 19.3058365 22.625 22.1875 C23.7558444 24.12408698 24.88732595 26.06030209 26.01953125 27.99609375 C26.5091333 28.83841553 26.99873535 29.6807373 27.50317383 30.54858398 C28.55364485 32.31477776 29.67260394 34.04015592 30.8125 35.75 C31.1425 28.16 31.4725 20.57 31.8125 12.75 C30.4925 12.42 29.1725 12.09 27.8125 11.75 C26.8125 10.75 26.8125 10.75 26.71484375 8.68359375 C26.72644531 7.85988281 26.73804688 7.03617188 26.75 6.1875 C26.75902344 5.36121094 26.76804687 4.53492188 26.77734375 3.68359375 C26.78894531 3.04550781 26.80054688 2.40742187 26.8125 1.75 C30.3485396 -0.0180198 34.41821255 0.56535087 38.3125 0.5625 C39.19292969 0.55025391 40.07335937 0.53800781 40.98046875 0.52539062 C41.82222656 0.52345703 42.66398437 0.52152344 43.53125 0.51953125 C44.69043945 0.51336792 44.69043945 0.51336792 45.87304688 0.50708008 C47.8125 0.75 47.8125 0.75 49.8125 2.75 C50.078125 4.625 50.078125 4.625 50.0625 6.75 C50.07023437 7.801875 50.07023437 7.801875 50.078125 8.875 C49.8125 10.75 49.8125 10.75 47.8125 12.75 C46.4925 12.75 45.1725 12.75 43.8125 12.75 C43.81694122 13.35943451 43.82138245 13.96886902 43.82595825 14.59677124 C43.87010407 20.92288882 43.90032987 27.24896285 43.92236328 33.57519531 C43.93243924 35.93816911 43.94610029 38.30113039 43.96337891 40.6640625 C43.98755724 44.05471888 43.99896699 47.44521084 44.0078125 50.8359375 C44.01813507 51.89743011 44.02845764 52.95892273 44.03909302 54.05258179 C44.03931961 55.52388046 44.03931961 55.52388046 44.03955078 57.02490234 C44.043992 57.89094086 44.04843323 58.75697937 44.05300903 59.64926147 C43.8125 61.75 43.8125 61.75 41.8125 63.75 C39.53515625 64.05078125 39.53515625 64.05078125 36.875 64.0625 C35.99972656 64.07925781 35.12445313 64.09601563 34.22265625 64.11328125 C31.23483067 63.66292829 30.7607589 63.01693882 28.8125 60.75 C27.55456281 58.86494127 26.34231672 56.94910606 25.16015625 55.015625 C24.81875107 54.45937439 24.47734589 53.90312378 24.12559509 53.33001709 C23.03812167 51.55572243 21.95662329 49.77786553 20.875 48 C20.1520545 46.82009075 19.42875062 45.64040101 18.70507812 44.4609375 C15.32217948 38.93394273 12.02865743 33.3782755 8.8125 27.75 C8.4825 35.67 8.1525 43.59 7.8125 51.75 C9.4625 52.08 11.1125 52.41 12.8125 52.75 C12.83938151 54.39574566 12.85884123 56.04161413 12.875 57.6875 C12.88660156 58.60402344 12.89820313 59.52054688 12.91015625 60.46484375 C12.8125 62.75 12.8125 62.75 11.8125 63.75 C8.50733066 64.00035974 5.18853959 63.93521952 1.875 63.9375 C0.94236328 63.94974609 0.00972656 63.96199219 -0.95117188 63.97460938 C-1.84255859 63.97654297 -2.73394531 63.97847656 -3.65234375 63.98046875 C-4.473396 63.98457764 -5.29444824 63.98868652 -6.14038086 63.99291992 C-8.1875 63.75 -8.1875 63.75 -10.1875 61.75 C-10.48828125 59.875 -10.48828125 59.875 -10.5 57.75 C-10.51675781 57.04875 -10.53351563 56.3475 -10.55078125 55.625 C-10.43089844 55.00625 -10.31101562 54.3875 -10.1875 53.75 C-7.1875 51.75 -7.1875 51.75 -4.1875 51.75 C-4.1875 38.88 -4.1875 26.01 -4.1875 12.75 C-5.8375 12.42 -7.4875 12.09 -9.1875 11.75 C-11.08238952 9.85511048 -10.36769112 7.17860854 -10.41796875 4.66015625 C-9.77154557 -0.69748674 -4.20844029 0.15652694 0 0 Z " fill="#553E29" transform="translate(458.1875,47.25)"/>
<path d="M0 0 C0.87107895 -0.00953201 1.7421579 -0.01906403 2.63963318 -0.02888489 C3.58234573 -0.02797348 4.52505829 -0.02706207 5.49633789 -0.02612305 C6.94635948 -0.03255074 6.94635948 -0.03255074 8.42567444 -0.03910828 C10.47257707 -0.04485792 12.51950013 -0.04534719 14.56640625 -0.04101562 C17.70290927 -0.03785799 20.83846738 -0.06129901 23.97485352 -0.08666992 C25.96118045 -0.08894303 27.94750992 -0.08964636 29.93383789 -0.08862305 C31.34487038 -0.10243767 31.34487038 -0.10243767 32.78440857 -0.11653137 C33.65863968 -0.11030258 34.53287079 -0.10407379 35.43359375 -0.09765625 C36.20255478 -0.09828568 36.97151581 -0.0989151 37.76377869 -0.0995636 C40.35124832 0.38032941 41.23084487 1.17269556 42.78149414 3.2746582 C43.05280315 5.89147737 43.15566135 8.22986852 43.09399414 10.8371582 C43.0972168 11.52229492 43.10043945 12.20743164 43.10375977 12.91333008 C43.04877 18.00738235 43.04877 18.00738235 40.78149414 20.2746582 C38.65258789 20.50512695 38.65258789 20.50512695 36.21899414 20.4621582 C35.41333008 20.45571289 34.60766602 20.44926758 33.77758789 20.44262695 C31.78149414 20.2746582 31.78149414 20.2746582 30.78149414 19.2746582 C30.78149414 16.9646582 30.78149414 14.6546582 30.78149414 12.2746582 C25.17149414 12.2746582 19.56149414 12.2746582 13.78149414 12.2746582 C13.78149414 16.2346582 13.78149414 20.1946582 13.78149414 24.2746582 C14.84110352 24.25145508 15.90071289 24.22825195 16.99243164 24.2043457 C18.38044544 24.18558876 19.76846684 24.16738848 21.15649414 24.1496582 C22.20450195 24.12452148 22.20450195 24.12452148 23.27368164 24.09887695 C25.110469 24.08121554 26.94751377 24.1716256 28.78149414 24.2746582 C30.78149414 26.2746582 30.78149414 26.2746582 31.04711914 28.1496582 C31.04196289 28.8509082 31.03680664 29.5521582 31.03149414 30.2746582 C31.03922852 31.3265332 31.03922852 31.3265332 31.04711914 32.3996582 C30.78149414 34.2746582 30.78149414 34.2746582 28.78149414 36.2746582 C26.19197969 36.42013654 23.73964023 36.46114873 21.15649414 36.3996582 C17.50586914 36.3377832 17.50586914 36.3377832 13.78149414 36.2746582 C13.78149414 41.2246582 13.78149414 46.1746582 13.78149414 51.2746582 C19.39149414 51.2746582 25.00149414 51.2746582 30.78149414 51.2746582 C30.78149414 48.6346582 30.78149414 45.9946582 30.78149414 43.2746582 C32.78149414 41.2746582 32.78149414 41.2746582 34.91040039 41.04418945 C35.71348633 41.05836914 36.51657227 41.07254883 37.34399414 41.0871582 C38.1496582 41.09360352 38.95532227 41.10004883 39.78540039 41.10668945 C41.78149414 41.2746582 41.78149414 41.2746582 42.78149414 42.2746582 C42.93506679 45.24569834 43.01317535 48.17743374 43.03149414 51.1496582 C43.05211914 51.97852539 43.07274414 52.80739258 43.09399414 53.66137695 C43.10172852 54.85827148 43.10172852 54.85827148 43.10961914 56.0793457 C43.1236377 57.17738525 43.1236377 57.17738525 43.13793945 58.29760742 C42.67101449 60.8874419 41.82095429 61.64293711 39.78149414 63.2746582 C37.76377869 63.64888 37.76377869 63.64888 35.43359375 63.64697266 C34.12224709 63.65631584 34.12224709 63.65631584 32.78440857 63.66584778 C31.84372025 63.65663803 30.90303192 63.64742828 29.93383789 63.63793945 C28.48238121 63.63868721 28.48238121 63.63868721 27.00160217 63.63945007 C24.95645086 63.63710965 22.91129668 63.62738299 20.86621094 63.61083984 C17.72768548 63.5872236 14.59000786 63.59028209 11.45141602 63.59692383 C9.46638489 63.59134798 7.48135735 63.58423869 5.49633789 63.57543945 C4.08226906 63.57680656 4.08226906 63.57680656 2.63963318 63.57820129 C1.33301476 63.56390327 1.33301476 63.56390327 0 63.54931641 C-1.15224815 63.54240532 -1.15224815 63.54240532 -2.32777405 63.53535461 C-4.21850586 63.2746582 -4.21850586 63.2746582 -6.21850586 61.2746582 C-6.51928711 59.3996582 -6.51928711 59.3996582 -6.53100586 57.2746582 C-6.54776367 56.5734082 -6.56452148 55.8721582 -6.58178711 55.1496582 C-6.4619043 54.5309082 -6.34202148 53.9121582 -6.21850586 53.2746582 C-3.21850586 51.2746582 -3.21850586 51.2746582 -0.21850586 51.2746582 C-0.21850586 38.4046582 -0.21850586 25.5346582 -0.21850586 12.2746582 C-1.86850586 11.9446582 -3.51850586 11.6146582 -5.21850586 11.2746582 C-7.11339538 9.37976868 -6.39869698 6.70326675 -6.44897461 4.18481445 C-5.96069273 0.13786804 -3.47014778 0.02081365 0 0 Z " fill="#543D28" transform="translate(616.218505859375,47.725341796875)"/>
<path d="M0 0 C3.18446045 2.24891274 6.23477937 4.46955874 8 8 C8.65631559 12.77235191 8.67379368 15.99951847 5.9375 20.0625 C2.25345351 22.492403 0.33463758 22.70930433 -4 22 C-6.375 20.5 -6.375 20.5 -8 18 C-8.60891847 15.29598916 -8.81444126 12.78338105 -9 10 C-15.8394099 9.36711224 -15.8394099 9.36711224 -22 11.9375 C-27.14085601 19.80943577 -26.97742349 29.90691801 -25.125 38.875 C-24.04848978 43.50570267 -23.05131082 46.29912612 -19 49 C-14.74467674 49.67395543 -11.15741244 49.80128553 -7.5625 47.3125 C-5.96175595 44.94339881 -5.01923713 42.66060601 -4 40 C-4.84304688 40.02320313 -5.68609375 40.04640625 -6.5546875 40.0703125 C-8.19824219 40.09738281 -8.19824219 40.09738281 -9.875 40.125 C-10.96554687 40.14820313 -12.05609375 40.17140625 -13.1796875 40.1953125 C-16 40 -16 40 -18 38 C-18.56421794 31.79360266 -18.56421794 31.79360266 -16.79296875 29.30224609 C-14.42331723 27.58115116 -12.9132486 27.61267773 -10 27.6015625 C-9.030625 27.59769531 -8.06125 27.59382813 -7.0625 27.58984375 C-6.051875 27.60144531 -5.04125 27.61304688 -4 27.625 C-2.989375 27.61339844 -1.97875 27.60179687 -0.9375 27.58984375 C0.031875 27.59371094 1.00125 27.59757812 2 27.6015625 C2.886875 27.60494629 3.77375 27.60833008 4.6875 27.61181641 C7 28 7 28 8.78759766 29.11450195 C10.59474144 31.92492714 10.38897606 34.24881943 10.3984375 37.56640625 C10.40423828 39.5009668 10.40423828 39.5009668 10.41015625 41.47460938 C10.40387207 42.14516357 10.39758789 42.81571777 10.39111328 43.5065918 C10.37502661 45.55910477 10.39098134 47.60965685 10.41015625 49.66210938 C10.40628906 50.95052734 10.40242188 52.23894531 10.3984375 53.56640625 C10.39505371 54.75177979 10.39166992 55.93715332 10.38818359 57.15844727 C10.26008301 58.09615967 10.13198242 59.03387207 10 60 C6.78697711 62.14201526 5.73290719 62.65325876 2 62 C0.3125 59.625 0.3125 59.625 -1 57 C-1.66 56.34 -2.32 55.68 -3 55 C-3.721875 55.78375 -4.44375 56.5675 -5.1875 57.375 C-9.72471543 61.6097344 -13.58945806 62.48613558 -19.66796875 62.3046875 C-26.38014622 61.42771959 -31.29898421 57.61925882 -35.45703125 52.43359375 C-41.69204265 42.59963907 -42.43801861 30.31944925 -41 19 C-39.0011374 10.58082756 -35.22440701 4.76978223 -28 0 C-19.6792298 -4.96045916 -8.52777275 -4.41878856 0 0 Z " fill="#543E28" transform="translate(486,131)"/>
<path d="M0 0 C1.2765873 -0.00945648 1.2765873 -0.00945648 2.57896423 -0.019104 C3.49980301 -0.01505554 4.42064178 -0.01100708 5.36938477 -0.00683594 C6.31386978 -0.00874939 7.2583548 -0.01066284 8.23146057 -0.01263428 C10.23129543 -0.01399679 12.23113911 -0.01029573 14.23095703 -0.00195312 C17.29487987 0.00873357 20.35821477 -0.00184009 23.42211914 -0.01464844 C25.36287565 -0.01332662 27.30363178 -0.01076377 29.24438477 -0.00683594 C30.16319931 -0.0108844 31.08201385 -0.01493286 32.02867126 -0.019104 C32.88288162 -0.01279968 33.73709198 -0.00649536 34.6171875 0 C35.36838364 0.00159119 36.11957977 0.00318237 36.89353943 0.00482178 C38.87329102 0.25878906 38.87329102 0.25878906 41.87329102 2.25878906 C42.12147027 5.19262242 42.19972982 7.89511591 42.12329102 10.82128906 C42.11813477 11.61470703 42.11297852 12.408125 42.10766602 13.22558594 C42.02733593 19.10474415 42.02733593 19.10474415 40.87329102 20.25878906 C38.87719727 20.46191406 38.87719727 20.46191406 36.43579102 20.50878906 C35.63270508 20.53457031 34.82961914 20.56035156 34.00219727 20.58691406 C33.2996582 20.47863281 32.59711914 20.37035156 31.87329102 20.25878906 C29.87329102 17.25878906 29.87329102 17.25878906 29.87329102 12.25878906 C24.59329102 12.25878906 19.31329102 12.25878906 13.87329102 12.25878906 C13.87329102 16.21878906 13.87329102 20.17878906 13.87329102 24.25878906 C14.84911133 24.23558594 15.82493164 24.21238281 16.83032227 24.18847656 C18.10262695 24.17042969 19.37493164 24.15238281 20.68579102 24.13378906 C21.95036133 24.11058594 23.21493164 24.08738281 24.51782227 24.06347656 C27.87329102 24.25878906 27.87329102 24.25878906 30.87329102 26.25878906 C31.23657227 28.13378906 31.23657227 28.13378906 31.18579102 30.25878906 C31.18192383 30.96003906 31.17805664 31.66128906 31.17407227 32.38378906 C30.87329102 34.25878906 30.87329102 34.25878906 28.87329102 36.25878906 C26.28377657 36.4042674 23.83143711 36.44527958 21.24829102 36.38378906 C17.59766602 36.32191406 17.59766602 36.32191406 13.87329102 36.25878906 C13.87329102 41.20878906 13.87329102 46.15878906 13.87329102 51.25878906 C19.48329102 51.25878906 25.09329102 51.25878906 30.87329102 51.25878906 C30.87329102 48.61878906 30.87329102 45.97878906 30.87329102 43.25878906 C32.87329102 41.25878906 32.87329102 41.25878906 34.74829102 40.99316406 C35.44954102 40.99832031 36.15079102 41.00347656 36.87329102 41.00878906 C37.57454102 41.00363281 38.27579102 40.99847656 38.99829102 40.99316406 C40.87329102 41.25878906 40.87329102 41.25878906 42.87329102 43.25878906 C43.09881443 46.11444265 43.19757865 48.84132417 43.18579102 51.69628906 C43.2019043 52.47294922 43.21801758 53.24960938 43.23461914 54.04980469 C43.2395326 59.75432962 43.2395326 59.75432962 41.62232971 61.9818573 C39.43007619 63.58236972 38.22376587 63.63331224 35.52539062 63.63110352 C34.21404396 63.6404467 34.21404396 63.6404467 32.87620544 63.64997864 C31.93551712 63.64076889 30.9948288 63.63155914 30.02563477 63.62207031 C28.57417809 63.62281807 28.57417809 63.62281807 27.09339905 63.62358093 C25.04824774 63.62124051 23.00309355 63.61151385 20.95800781 63.5949707 C17.81948235 63.57135446 14.68180474 63.57441295 11.54321289 63.58105469 C9.55818176 63.57547884 7.57315422 63.56836955 5.58813477 63.55957031 C4.17406593 63.56093742 4.17406593 63.56093742 2.73143005 63.56233215 C1.42481163 63.54803413 1.42481163 63.54803413 0.09179688 63.53344727 C-1.06045128 63.52653618 -1.06045128 63.52653618 -2.23597717 63.51948547 C-4.12670898 63.25878906 -4.12670898 63.25878906 -6.12670898 61.25878906 C-6.39233398 59.38378906 -6.39233398 59.38378906 -6.37670898 57.25878906 C-6.38186523 56.55753906 -6.38702148 55.85628906 -6.39233398 55.13378906 C-6.12670898 53.25878906 -6.12670898 53.25878906 -4.12670898 51.25878906 C-2.80670898 51.25878906 -1.48670898 51.25878906 -0.12670898 51.25878906 C-0.12670898 38.38878906 -0.12670898 25.51878906 -0.12670898 12.25878906 C-1.77670898 11.92878906 -3.42670898 11.59878906 -5.12670898 11.25878906 C-7.02159851 9.36389954 -6.3069001 6.68739761 -6.35717773 4.16894531 C-5.87399043 0.16422342 -3.4448586 0.00730465 0 0 Z " fill="#533D27" transform="translate(326.126708984375,128.7412109375)"/>
<path d="M0 0 C0.87115448 -0.00960754 1.74230896 -0.01921509 2.63986206 -0.02911377 C4.06167282 -0.03548859 4.06167282 -0.03548859 5.51220703 -0.04199219 C6.96435104 -0.0505423 6.96435104 -0.0505423 8.4458313 -0.05926514 C10.49870709 -0.06873101 12.55159818 -0.07525539 14.60449219 -0.07910156 C17.74978088 -0.08880475 20.89441571 -0.1198123 24.03955078 -0.15136719 C26.0304323 -0.1578971 28.02131851 -0.16314762 30.01220703 -0.16699219 C30.95603241 -0.17933899 31.89985779 -0.19168579 32.87228394 -0.20440674 C33.74974274 -0.20140564 34.62720154 -0.19840454 35.53125 -0.1953125 C36.30322723 -0.19895813 37.07520447 -0.20260376 37.87057495 -0.20635986 C40.4663339 0.26484217 41.34372248 1.05168449 42.89501953 3.16113281 C43.13970617 5.77403658 43.2237813 8.12203319 43.14501953 10.72363281 C43.13986328 11.40876953 43.13470703 12.09390625 43.12939453 12.79980469 C43.05008222 17.85100743 43.05008222 17.85100743 41.89501953 20.16113281 C40.24927387 20.18801432 38.6034054 20.20747405 36.95751953 20.22363281 C36.04099609 20.23523438 35.12447266 20.24683594 34.18017578 20.25878906 C31.89501953 20.16113281 31.89501953 20.16113281 30.89501953 19.16113281 C30.89501953 16.85113281 30.89501953 14.54113281 30.89501953 12.16113281 C25.28501953 12.16113281 19.67501953 12.16113281 13.89501953 12.16113281 C13.89501953 16.12113281 13.89501953 20.08113281 13.89501953 24.16113281 C14.94302734 24.12632812 15.99103516 24.09152344 17.07080078 24.05566406 C18.449691 24.02752345 19.82859856 24.00022358 21.20751953 23.97363281 C21.8978125 23.94849609 22.58810547 23.92335937 23.29931641 23.89746094 C28.38286619 23.8237863 28.38286619 23.8237863 30.85205078 25.45019531 C32.61415343 28.34083561 32.25213318 30.88759099 31.89501953 34.16113281 C28.21104837 36.61711358 25.44778145 36.38828602 21.20751953 36.28613281 C18.79439453 36.24488281 16.38126953 36.20363281 13.89501953 36.16113281 C13.89501953 41.11113281 13.89501953 46.06113281 13.89501953 51.16113281 C19.83501953 51.16113281 25.77501953 51.16113281 31.89501953 51.16113281 C31.89501953 48.19113281 31.89501953 45.22113281 31.89501953 42.16113281 C32.89501953 41.16113281 32.89501953 41.16113281 34.92626953 41.02832031 C35.74095703 41.03089844 36.55564453 41.03347656 37.39501953 41.03613281 C38.20970703 41.03355469 39.02439453 41.03097656 39.86376953 41.02832031 C41.89501953 41.16113281 41.89501953 41.16113281 42.89501953 42.16113281 C43.1718884 45.29856049 43.12675582 48.45042559 43.14501953 51.59863281 C43.16564453 52.48357422 43.18626953 53.36851562 43.20751953 54.28027344 C43.21525391 55.54967773 43.21525391 55.54967773 43.22314453 56.84472656 C43.23716309 58.01346313 43.23716309 58.01346313 43.25146484 59.20581055 C43.13383789 59.85106689 43.01621094 60.49632324 42.89501953 61.16113281 C39.76903787 63.24512059 39.08107114 63.41060547 35.53125 63.40405273 C34.2150618 63.40866768 34.2150618 63.40866768 32.87228394 63.41337585 C31.92845856 63.40619034 30.98463318 63.39900482 30.01220703 63.39160156 C29.04219757 63.39114334 28.07218811 63.39068512 27.07278442 63.39021301 C25.02344539 63.3871924 22.97410862 63.37931179 20.92480469 63.36694336 C17.77547139 63.34866446 14.62643163 63.34643383 11.47705078 63.34667969 C9.48876697 63.34176538 7.50048516 63.33593744 5.51220703 63.32910156 C4.56433319 63.32798874 3.61645935 63.32687592 2.63986206 63.32572937 C1.33313034 63.31615959 1.33313034 63.31615959 0 63.30639648 C-0.77038605 63.30258469 -1.54077209 63.29877289 -2.33450317 63.29484558 C-4.10498047 63.16113281 -4.10498047 63.16113281 -5.10498047 62.16113281 C-5.27294922 60.16503906 -5.27294922 60.16503906 -5.29248047 57.72363281 C-5.30666016 56.92054688 -5.32083984 56.11746094 -5.33544922 55.29003906 C-5.10498047 53.16113281 -5.10498047 53.16113281 -3.10498047 51.16113281 C-2.11498047 51.16113281 -1.12498047 51.16113281 -0.10498047 51.16113281 C-0.10498047 38.29113281 -0.10498047 25.42113281 -0.10498047 12.16113281 C-1.42498047 11.83113281 -2.74498047 11.50113281 -4.10498047 11.16113281 C-5.10498047 10.16113281 -5.10498047 10.16113281 -5.23779297 8.12988281 C-5.23521484 7.31519531 -5.23263672 6.50050781 -5.22998047 5.66113281 C-5.23255859 4.84644531 -5.23513672 4.03175781 -5.23779297 3.19238281 C-4.99704756 -0.48960574 -3.24771994 0.02878484 0 0 Z " fill="#533D27" transform="translate(512.10498046875,128.8388671875)"/>
<path d="M0 0 C0.87115448 -0.00960754 1.74230896 -0.01921509 2.63986206 -0.02911377 C4.06167282 -0.03548859 4.06167282 -0.03548859 5.51220703 -0.04199219 C6.96435104 -0.0505423 6.96435104 -0.0505423 8.4458313 -0.05926514 C10.49870709 -0.06873101 12.55159818 -0.07525539 14.60449219 -0.07910156 C17.74978088 -0.08880475 20.89441571 -0.1198123 24.03955078 -0.15136719 C26.0304323 -0.1578971 28.02131851 -0.16314762 30.01220703 -0.16699219 C30.95603241 -0.17933899 31.89985779 -0.19168579 32.87228394 -0.20440674 C33.74974274 -0.20140564 34.62720154 -0.19840454 35.53125 -0.1953125 C36.30322723 -0.19895813 37.07520447 -0.20260376 37.87057495 -0.20635986 C40.4663339 0.26484217 41.34372248 1.05168449 42.89501953 3.16113281 C43.13970617 5.77403658 43.2237813 8.12203319 43.14501953 10.72363281 C43.13986328 11.40876953 43.13470703 12.09390625 43.12939453 12.79980469 C43.05008222 17.85100743 43.05008222 17.85100743 41.89501953 20.16113281 C40.24927387 20.18801432 38.6034054 20.20747405 36.95751953 20.22363281 C36.04099609 20.23523438 35.12447266 20.24683594 34.18017578 20.25878906 C31.89501953 20.16113281 31.89501953 20.16113281 30.89501953 19.16113281 C30.89501953 16.85113281 30.89501953 14.54113281 30.89501953 12.16113281 C25.28501953 12.16113281 19.67501953 12.16113281 13.89501953 12.16113281 C13.89501953 16.45113281 13.89501953 20.74113281 13.89501953 25.16113281 C14.94302734 25.12632813 15.99103516 25.09152344 17.07080078 25.05566406 C18.449691 25.02752345 19.82859856 25.00022358 21.20751953 24.97363281 C21.8978125 24.94849609 22.58810547 24.92335938 23.29931641 24.89746094 C28.38286619 24.8237863 28.38286619 24.8237863 30.85205078 26.45019531 C32.61415343 29.34083561 32.25213318 31.88759099 31.89501953 35.16113281 C28.214146 37.6150485 25.45146365 37.3891604 21.20751953 37.28613281 C20.505625 37.27710938 19.80373047 37.26808594 19.08056641 37.25878906 C17.35190428 37.23526985 15.62341808 37.19939994 13.89501953 37.16113281 C13.89501953 41.78113281 13.89501953 46.40113281 13.89501953 51.16113281 C15.87501953 51.16113281 17.85501953 51.16113281 19.89501953 51.16113281 C20.88501953 51.82113281 21.87501953 52.48113281 22.89501953 53.16113281 C23.25830078 55.03613281 23.25830078 55.03613281 23.20751953 57.16113281 C23.20365234 57.86238281 23.19978516 58.56363281 23.19580078 59.28613281 C22.89501953 61.16113281 22.89501953 61.16113281 20.89501953 63.16113281 C18.38891602 63.40405273 18.38891602 63.40405273 15.26611328 63.39160156 C14.14914062 63.38966797 13.03216797 63.38773438 11.88134766 63.38574219 C10.12467773 63.36737305 10.12467773 63.36737305 8.33251953 63.34863281 C7.15753906 63.34798828 5.98255859 63.34734375 4.77197266 63.34667969 C-3.96485906 63.30125422 -3.96485906 63.30125422 -5.10498047 62.16113281 C-5.27294922 60.16503906 -5.27294922 60.16503906 -5.29248047 57.72363281 C-5.30666016 56.92054687 -5.32083984 56.11746094 -5.33544922 55.29003906 C-5.10498047 53.16113281 -5.10498047 53.16113281 -3.10498047 51.16113281 C-2.11498047 51.16113281 -1.12498047 51.16113281 -0.10498047 51.16113281 C-0.10498047 38.29113281 -0.10498047 25.42113281 -0.10498047 12.16113281 C-1.42498047 11.83113281 -2.74498047 11.50113281 -4.10498047 11.16113281 C-5.10498047 10.16113281 -5.10498047 10.16113281 -5.23779297 8.12988281 C-5.23521484 7.31519531 -5.23263672 6.50050781 -5.22998047 5.66113281 C-5.23255859 4.84644531 -5.23513672 4.03175781 -5.23779297 3.19238281 C-4.99704756 -0.48960574 -3.24771994 0.02878484 0 0 Z " fill="#543D28" transform="translate(270.10498046875,47.8388671875)"/>
<path d="M0 0 C0.93106567 -0.00945648 1.86213135 -0.01891296 2.82141113 -0.02865601 C4.32617004 -0.01954697 4.32617004 -0.01954697 5.86132812 -0.01025391 C7.4091095 -0.01455917 7.4091095 -0.01455917 8.98815918 -0.01895142 C11.17033436 -0.02099342 13.35252778 -0.01545411 15.53466797 -0.00292969 C18.87964713 0.01312154 22.22341791 -0.00277432 25.56835938 -0.02197266 C27.68685163 -0.01999025 29.80534314 -0.01614663 31.92382812 -0.01025391 C32.92700073 -0.0163266 33.93017334 -0.02239929 34.96374512 -0.02865601 C36.36034363 -0.01447128 36.36034363 -0.01447128 37.78515625 0 C38.60439575 0.00238678 39.42363525 0.00477356 40.2677002 0.00723267 C42.92670011 0.48394169 43.81007351 1.22280098 45.39257812 3.38818359 C45.69127496 5.98860314 45.8120297 8.29517518 45.76757812 10.88818359 C45.77917969 11.56494141 45.79078125 12.24169922 45.80273438 12.93896484 C45.78562224 15.83091557 45.72081184 17.89632587 44.09179688 20.33740234 C41.24684319 22.09669554 38.63047384 21.68253775 35.39257812 21.38818359 C33.39257812 19.38818359 33.39257812 19.38818359 33.26757812 15.76318359 C33.30882812 14.64943359 33.35007812 13.53568359 33.39257812 12.38818359 C30.75257813 12.38818359 28.11257813 12.38818359 25.39257812 12.38818359 C25.39257812 25.25818359 25.39257812 38.12818359 25.39257812 51.38818359 C27.04257812 51.71818359 28.69257812 52.04818359 30.39257812 52.38818359 C32.28746765 54.28307312 31.57276924 56.95957505 31.62304688 59.47802734 C31.39257812 61.38818359 31.39257812 61.38818359 29.39257812 63.38818359 C27.26953125 63.63110352 27.26953125 63.63110352 24.67382812 63.61865234 C23.27583984 63.61575195 23.27583984 63.61575195 21.84960938 63.61279297 C20.87378906 63.60054687 19.89796875 63.58830078 18.89257812 63.57568359 C17.91675781 63.57503906 16.9409375 63.57439453 15.93554688 63.57373047 C8.67327009 63.52852958 8.67327009 63.52852958 6.39257812 62.38818359 C6.33858076 60.93025475 6.29978636 59.47175648 6.26757812 58.01318359 C6.244375 57.20107422 6.22117187 56.38896484 6.19726562 55.55224609 C6.39257812 53.38818359 6.39257812 53.38818359 8.39257812 51.38818359 C9.38257813 51.38818359 10.37257813 51.38818359 11.39257812 51.38818359 C11.39257812 38.51818359 11.39257812 25.64818359 11.39257812 12.38818359 C9.08257813 12.38818359 6.77257812 12.38818359 4.39257812 12.38818359 C4.43382812 13.50193359 4.47507812 14.61568359 4.51757812 15.76318359 C4.39257812 19.38818359 4.39257812 19.38818359 2.39257812 21.38818359 C0.51757812 21.65380859 0.51757812 21.65380859 -1.60742188 21.63818359 C-2.65929687 21.64591797 -2.65929687 21.64591797 -3.73242188 21.65380859 C-5.60742188 21.38818359 -5.60742188 21.38818359 -7.60742188 19.38818359 C-7.83294426 16.69655934 -7.93175478 14.14148615 -7.91992188 11.45068359 C-7.93603516 10.72171875 -7.95214844 9.99275391 -7.96875 9.24169922 C-7.97365082 3.89490289 -7.97365082 3.89490289 -6.37268066 1.67977905 C-4.10900794 0.02350666 -2.79077695 0.00813067 0 0 Z " fill="#553E29" transform="translate(522.607421875,47.61181640625)"/>
<path d="M0 0 C1.52733141 3.05466283 0.32887128 5.08587639 -0.58203125 8.328125 C-0.84339119 9.26806305 -0.84339119 9.26806305 -1.11003113 10.22698975 C-1.67081649 12.2366072 -2.24170514 14.24320545 -2.8125 16.25 C-3.18617257 17.58706488 -3.55922674 18.92430274 -3.93164062 20.26171875 C-6.68443295 30.09260824 -6.68443295 30.09260824 -8.12890625 34.24609375 C-9.22671046 37.71673038 -9.04017914 39.51208017 -8 43 C-6.61716501 45.54957935 -4.99179617 47.88809032 -3.3125 50.25 C-2.40314425 51.56776758 -1.49559376 52.88678272 -0.58984375 54.20703125 C-0.14753418 54.84850098 0.29477539 55.4899707 0.75048828 56.15087891 C3.34527796 59.99084315 5.67921549 63.99051457 8 68 C5.16723281 66.65725102 2.65060465 65.14231475 0.1015625 63.3203125 C-0.62546875 62.80339844 -1.3525 62.28648437 -2.1015625 61.75390625 C-2.85179687 61.21636719 -3.60203125 60.67882812 -4.375 60.125 C-9.20581566 56.67801174 -14.04011378 53.2593538 -19 50 C-18.85900879 50.73935791 -18.71801758 51.47871582 -18.57275391 52.24047852 C-13.41504453 79.39131965 -13.41504453 79.39131965 -12 92 C-14.68045463 89.53543812 -16.57769502 86.80548397 -18.58203125 83.7734375 C-19.26716797 82.74089844 -19.95230469 81.70835937 -20.65820312 80.64453125 C-21.36912109 79.56558594 -22.08003906 78.48664063 -22.8125 77.375 C-23.86147461 75.79138672 -23.86147461 75.79138672 -24.93164062 74.17578125 C-26.30681963 72.09950538 -27.68071338 70.02237759 -29.05322266 67.94433594 C-31.69076303 63.95527939 -34.34338813 59.97637259 -37 56 C-40.84526769 56.55886586 -43.302302 57.60352252 -46.46875 59.8359375 C-47.28730469 60.40570313 -48.10585938 60.97546875 -48.94921875 61.5625 C-49.79097656 62.160625 -50.63273437 62.75875 -51.5 63.375 C-53.17624197 64.55067967 -54.85330147 65.72519475 -56.53125 66.8984375 C-57.69720703 67.71586426 -57.69720703 67.71586426 -58.88671875 68.54980469 C-61.20072509 70.13774342 -63.5613945 71.61079441 -66 73 C-64.68825813 69.41982342 -63.11592579 66.46201557 -60.9453125 63.33203125 C-60.3356665 62.44660645 -59.72602051 61.56118164 -59.09790039 60.64892578 C-58.44684326 59.71290527 -57.79578613 58.77688477 -57.125 57.8125 C-55.77133059 55.84821065 -54.41847883 53.88335759 -53.06640625 51.91796875 C-52.04764404 50.43949463 -52.04764404 50.43949463 -51.00830078 48.93115234 C-47.98717532 44.52176353 -45.02027012 40.07704609 -42.0625 35.625 C-41.54896973 34.85260986 -41.03543945 34.08021973 -40.50634766 33.28442383 C-39.33653985 31.52362993 -38.16809482 29.76193074 -37 28 C-32.97473762 29.8965979 -30.70418896 32.32184025 -27.78125 35.63671875 C-26.11692411 37.22270528 -26.11692411 37.22270528 -24.07104492 36.86132812 C-21.23736768 35.68282838 -20.57964453 34.23861975 -19.08203125 31.58203125 C-18.28962036 30.20362061 -18.28962036 30.20362061 -17.48120117 28.79736328 C-16.93052979 27.8123584 -16.3798584 26.82735352 -15.8125 25.8125 C-14.66100402 23.80475506 -13.50735213 21.79824506 -12.3515625 19.79296875 C-11.50319824 18.31449463 -11.50319824 18.31449463 -10.63769531 16.80615234 C-7.29325588 11.07553415 -3.65579204 5.53564375 0 0 Z " fill="#F8F8F8" transform="translate(112,90)"/>
<path d="M0 0 C1.1653125 -0.00128906 2.330625 -0.00257813 3.53125 -0.00390625 C4.7584375 -0.00003906 5.985625 0.00382813 7.25 0.0078125 C9.09078125 0.00201172 9.09078125 0.00201172 10.96875 -0.00390625 C12.71671875 -0.00197266 12.71671875 -0.00197266 14.5 0 C15.57765625 0.00112793 16.6553125 0.00225586 17.765625 0.00341797 C20.25 0.1328125 20.25 0.1328125 21.25 1.1328125 C21.41796875 3.12890625 21.41796875 3.12890625 21.4375 5.5703125 C21.45167969 6.37339844 21.46585937 7.17648438 21.48046875 8.00390625 C21.25 10.1328125 21.25 10.1328125 19.25 12.1328125 C16.94 12.1328125 14.63 12.1328125 12.25 12.1328125 C12.25 25.0028125 12.25 37.8728125 12.25 51.1328125 C17.53 51.1328125 22.81 51.1328125 28.25 51.1328125 C28.25 48.4928125 28.25 45.8528125 28.25 43.1328125 C30.25 41.1328125 30.25 41.1328125 32.125 40.8671875 C32.82625 40.87234375 33.5275 40.8775 34.25 40.8828125 C34.95125 40.87765625 35.6525 40.8725 36.375 40.8671875 C38.25 41.1328125 38.25 41.1328125 40.25 43.1328125 C40.47552341 45.98846609 40.57428763 48.7153476 40.5625 51.5703125 C40.57861328 52.34697266 40.59472656 53.12363281 40.61132812 53.92382812 C40.61624297 59.62996829 40.61624297 59.62996829 38.99429321 61.85687256 C36.82110896 63.4465437 35.65338849 63.50218968 32.97802734 63.48925781 C32.12058929 63.49225891 31.26315125 63.49526001 30.37973022 63.49835205 C29.45777863 63.48600525 28.53582703 63.47365845 27.5859375 63.4609375 C26.63812408 63.45906433 25.69031067 63.45719116 24.71377563 63.45526123 C22.71149169 63.44854001 20.7092209 63.43462414 18.70703125 63.4140625 C15.63008529 63.38286406 12.55365104 63.37308796 9.4765625 63.3671875 C7.53384787 63.3580195 5.59113849 63.34764438 3.6484375 63.3359375 C2.72243744 63.33168762 1.79643738 63.32743774 0.84237671 63.32305908 C-0.00875702 63.31345154 -0.85989075 63.30384399 -1.73681641 63.29394531 C-2.48943756 63.28711731 -3.24205872 63.28028931 -4.01748657 63.27325439 C-5.75 63.1328125 -5.75 63.1328125 -6.75 62.1328125 C-6.91796875 60.13671875 -6.91796875 60.13671875 -6.9375 57.6953125 C-6.95167969 56.89222656 -6.96585937 56.08914062 -6.98046875 55.26171875 C-6.75 53.1328125 -6.75 53.1328125 -4.75 51.1328125 C-3.76 51.1328125 -2.77 51.1328125 -1.75 51.1328125 C-1.75 38.2628125 -1.75 25.3928125 -1.75 12.1328125 C-3.07 11.8028125 -4.39 11.4728125 -5.75 11.1328125 C-6.75 10.1328125 -6.75 10.1328125 -6.8828125 8.1015625 C-6.88023437 7.286875 -6.87765625 6.4721875 -6.875 5.6328125 C-6.87757813 4.818125 -6.88015625 4.0034375 -6.8828125 3.1640625 C-6.60528765 -1.08043518 -3.58865707 0.00375607 0 0 Z " fill="#533D27" transform="translate(271.75,128.8671875)"/>
<path d="M0 0 C2.69793183 2.4490489 4.44657895 5.13691041 6.3359375 8.2421875 C6.98216064 9.29897705 7.62838379 10.3557666 8.29418945 11.44458008 C8.98783653 12.58802696 9.6814391 13.73150085 10.375 14.875 C11.08832154 16.04414732 11.80211195 17.21300869 12.51635742 18.3815918 C13.60720643 20.16656305 14.69770543 21.95173901 15.78660583 23.73789978 C19.26717321 29.44685748 22.78627525 35.13164297 26.3125 40.8125 C32.36687882 50.56952648 32.36687882 50.56952648 35 55 C38.34824967 54.42870038 39.82479231 53.46163427 42.0625 50.9375 C43.53515625 49.27734375 43.53515625 49.27734375 45 48 C45.99 48 46.98 48 48 48 C50.0234375 50.24609375 50.0234375 50.24609375 52.375 53.4375 C53.27318168 54.64081599 54.17163244 55.84393117 55.0703125 57.046875 C55.54629883 57.69076172 56.02228516 58.33464844 56.51269531 58.99804688 C59.05619908 62.42167309 61.6558197 65.80221457 64.25 69.1875 C64.7850415 69.88794434 65.32008301 70.58838867 65.87133789 71.31005859 C72.19387549 79.58164914 78.59513674 87.79209309 85 96 C81.8461065 96 81.04643385 95.66025648 78.4296875 94.12109375 C77.35170898 93.49364258 77.35170898 93.49364258 76.25195312 92.85351562 C75.46755859 92.38623047 74.68316406 91.91894531 73.875 91.4375 C73.04677734 90.94572266 72.21855469 90.45394531 71.36523438 89.94726562 C69.54835517 88.86836826 67.73231408 87.78805858 65.91699219 86.70654297 C62.92083035 84.95368297 59.89202364 83.2723411 56.8515625 81.59765625 C42.80544694 73.72050875 31.92285673 64.93141745 21.02539062 53.10620117 C17.36846577 49.3033696 13.36505109 45.89026288 9.24633789 42.59838867 C1.89498453 36.20123898 2.47885964 24.73747393 1.375 15.625 C1.2409375 14.55894531 1.106875 13.49289063 0.96875 12.39453125 C0.45354992 8.21510204 0 4.21756789 0 0 Z " fill="#F8F7F7" transform="translate(127,70)"/>
<path d="M0 0 C0.93199219 -0.00128906 1.86398437 -0.00257812 2.82421875 -0.00390625 C4.28794922 0.00189453 4.28794922 0.00189453 5.78125 0.0078125 C6.75707031 0.00394531 7.73289062 0.00007813 8.73828125 -0.00390625 C10.13626953 -0.00197266 10.13626953 -0.00197266 11.5625 0 C12.41908203 0.00112793 13.27566406 0.00225586 14.15820312 0.00341797 C16.28125 0.1328125 16.28125 0.1328125 18.28125 1.1328125 C18.33524736 2.59074134 18.37404177 4.04923962 18.40625 5.5078125 C18.42945313 6.31992187 18.45265625 7.13203125 18.4765625 7.96875 C18.28125 10.1328125 18.28125 10.1328125 16.28125 12.1328125 C15.29125 12.1328125 14.30125 12.1328125 13.28125 12.1328125 C13.28125 25.0028125 13.28125 37.8728125 13.28125 51.1328125 C14.60125 51.4628125 15.92125 51.7928125 17.28125 52.1328125 C18.28125 53.1328125 18.28125 53.1328125 18.37890625 55.19921875 C18.36730469 56.02292969 18.35570312 56.84664062 18.34375 57.6953125 C18.33472656 58.52160156 18.32570313 59.34789062 18.31640625 60.19921875 C18.30480469 60.83730469 18.29320312 61.47539063 18.28125 62.1328125 C14.51085943 64.01800779 9.92970405 63.31757244 5.78125 63.3203125 C4.80542969 63.33255859 3.82960938 63.34480469 2.82421875 63.35742188 C1.89222656 63.35935547 0.96023438 63.36128906 0 63.36328125 C-0.85658203 63.36739014 -1.71316406 63.37149902 -2.59570312 63.37573242 C-4.71875 63.1328125 -4.71875 63.1328125 -6.71875 61.1328125 C-6.984375 59.2578125 -6.984375 59.2578125 -6.96875 57.1328125 C-6.97390625 56.4315625 -6.9790625 55.7303125 -6.984375 55.0078125 C-6.71875 53.1328125 -6.71875 53.1328125 -4.71875 51.1328125 C-3.72875 51.1328125 -2.73875 51.1328125 -1.71875 51.1328125 C-1.71875 38.2628125 -1.71875 25.3928125 -1.71875 12.1328125 C-3.03875 11.8028125 -4.35875 11.4728125 -5.71875 11.1328125 C-6.71875 10.1328125 -6.71875 10.1328125 -6.81640625 8.06640625 C-6.80480469 7.24269531 -6.79320312 6.41898438 -6.78125 5.5703125 C-6.77222656 4.74402344 -6.76320313 3.91773438 -6.75390625 3.06640625 C-6.74230469 2.42832031 -6.73070312 1.79023437 -6.71875 1.1328125 C-4.28983818 -0.08164341 -2.71155557 0.00357052 0 0 Z " fill="#57412C" transform="translate(582.71875,47.8671875)"/>
<path d="M0 0 C3.88143631 1.76428923 5.52328334 3.28492501 7.875 6.8125 C10.89796806 15.16164989 9.82309312 25.80069785 6.921875 34.0390625 C5.6960497 36.64653834 4.33911417 38.31876169 2 40 C-2.34752939 41.44917646 -6.45679506 41.50883895 -11 41 C-15.0875236 38.82578532 -16.63395239 36.26727288 -18.37817383 32.03540039 C-19.49384861 28.38350378 -19.43222894 24.78982745 -19.375 21 C-19.38660156 20.23171875 -19.39820313 19.4634375 -19.41015625 18.671875 C-19.37584566 11.94700006 -17.95432242 7.24032082 -13.4375 2.0625 C-9.35687239 -1.01069087 -4.869711 -0.8393323 0 0 Z " fill="#FCFBFB" transform="translate(416,59)"/>
<path d="M0 0 C14.05263158 0 14.05263158 0 19 4 C22.0274916 8.81678923 22.54734314 12.78257567 22.5 18.3125 C22.49572998 19.06289551 22.49145996 19.81329102 22.48706055 20.58642578 C22.3044208 26.54319212 21.23390818 31.54655584 17 36 C12 39 12 39 0 39 C0 26.13 0 13.26 0 0 Z " fill="#FBFAFA" transform="translate(399,141)"/>
<path d="M0 0 C11.36142141 -0.49397484 11.36142141 -0.49397484 14.36328125 1.828125 C16 4 16 4 16.4375 7 C15.95772637 10.28987634 15.33237177 11.66762823 13 14 C9.98509443 15.00496852 7.95818308 15.10335303 4.8125 15.0625 C3.224375 15.041875 1.63625 15.02125 0 15 C0 10.05 0 5.1 0 0 Z " fill="#F7F6F5" transform="translate(585,141)"/>
<path d="M0 0 C11.34043506 -0.49306239 11.34043506 -0.49306239 14.3984375 1.79296875 C16 4 16 4 15.875 7.5625 C15 11 15 11 13 14 C9.98509443 15.00496852 7.95818308 15.10335303 4.8125 15.0625 C3.224375 15.041875 1.63625 15.02125 0 15 C0 10.05 0 5.1 0 0 Z " fill="#F9F8F7" transform="translate(689,60)"/>
<path d="M0 0 C10.32295438 -0.36867694 10.32295438 -0.36867694 13.32421875 1.265625 C15 3 15 3 15.5625 6.9375 C15.37340171 10.04902634 15.06883332 10.90822224 13.125 13.5 C8.58956319 15.67700967 5.00353968 15.26685545 0 15 C0 10.05 0 5.1 0 0 Z " fill="#FCFBFB" transform="translate(341,60)"/>
<path d="M0 0 C1.40907283 2.81814566 0.50872691 4.17277204 -0.4375 7.125 C-0.72496094 8.03507812 -1.01242188 8.94515625 -1.30859375 9.8828125 C-1.65083984 10.93082031 -1.65083984 10.93082031 -2 12 C-2.99 12 -3.98 12 -5 12 C-5.99 12.495 -5.99 12.495 -7 13 C-5.35821735 8.22390502 -2.73453298 4.20617096 0 0 Z " fill="#DCD9D7" transform="translate(112,90)"/>
</svg>
